<?xml version="1.0" encoding="UTF-8" standalone="no"?>
<svg width="102px" height="111px" viewBox="0 0 102 111" version="1.1" xmlns="http://www.w3.org/2000/svg" xmlns:xlink="http://www.w3.org/1999/xlink">
    <!-- Generator: Sketch 3.7.2 (28276) - http://www.bohemiancoding.com/sketch -->
    <title>Group 5</title>
    <desc>Created with Sketch.</desc>
    <defs></defs>
    <g id="Page-1" stroke="none" stroke-width="1" fill="none" fill-rule="evenodd">
        <g id="Desktop" transform="translate(-256.000000, -92.000000)">
            <g id="Group-5" transform="translate(255.000000, 92.000000)">
                <path d="M12.7481441,104.327855 C9.90625574,108.720911 5.03317163,108.720912 5.03317163,108.720912 L5.03317163,110.157985 C5.03317163,110.157985 10.7066501,111.087659 16.1540971,110.439122 C21.2773345,109.706788 24.7945506,107.918675 24.7945506,107.918675 C24.7945506,107.918675 31.1814079,104.350417 33.9742647,99.4612999 C36.7671214,94.5721823 38.8349773,87.4201326 38.8349773,87.4201326 C38.8349773,87.4201326 41.2192155,78.1223757 44.9709312,71.423047 C47.8553709,66.7103333 52.6411714,67.2069575 52.6411714,67.2069575 L52.6411714,65.7637133 C52.6411714,65.7637133 46.5051387,64.296211 39.5977566,65.4296941 C34.7495623,65.7637133 29.2483934,70.271844 29.2483934,70.271844 C29.2483934,70.271844 24.0503227,75.2501087 22.2831115,79.1124267 C20.3598126,82.5892932 18.0944034,90.4356023 18.0944034,90.4356023 C18.0944034,90.4356023 15.1161036,101.012787 12.7481441,104.327855 Z" id="Path-2" fill="#97D0C0"></path>
                <rect id="Rectangle-1" fill="#000000" x="58.9381601" y="105.245409" width="43.2130802" height="1.77662748"></rect>
                <polygon id="Path-1" fill="#242324" points="92.4590051 106.061177 50.9037889 0.183424159 49.7280269 0.183424161 35.138903 37.5027589 36.9821707 37.5032067 41.1032909 27.2181224 71.4994138 106.061177"></polygon>
                <rect id="Rectangle-1" fill="#29292A" x="58.9381601" y="105.245409" width="43.2130802" height="1.77662748"></rect>
                <path d="M50.9999995,63 L23.2392745,72.2228142" id="Line" stroke="#000000" stroke-width="0.3" stroke-linecap="square"></path>
                <path d="M34.8113903,68.2993376 L34.8113903,63.7219482" id="Line" stroke="#000000" stroke-width="0.5" stroke-linecap="square"></path>
                <path d="M23.2392745,72.2228142 L29.7895287,66.1196283" id="Line" stroke="#000000" stroke-width="0.5" stroke-linecap="square"></path>
                <path d="M34.5930485,68.2993376 L29.7895287,66.1196283" id="Line" stroke="#000000" stroke-width="0.5" stroke-linecap="square"></path>
                <path d="M34.8113903,63.5039773 L29.7895287,66.1196283" id="Line" stroke="#000000" stroke-width="0.5" stroke-linecap="square"></path>
                <path d="M34.8113903,63.5664297 L51.0000004,63" id="Line" stroke="#000000" stroke-width="0.5" stroke-linecap="square"></path>
                <path d="M50.9007342,64.4848464 L51,63" id="Line" stroke="#000000" stroke-width="0.5" stroke-linecap="square"></path>
                <path d="M50.8595132,64.4848464 L46.0559934,65.0040582" id="Line" stroke="#000000" stroke-width="0.5" stroke-linecap="square"></path>
                <path d="M43.6542335,67.9723812 L46.0000001,65" id="Line" stroke="#000000" stroke-width="0.5" stroke-linecap="square"></path>
                <path d="M43.6542335,67.9723812 L48.0000001,65" id="Line" stroke="#000000" stroke-width="0.5" stroke-linecap="square"></path>
                <path d="M43.6542335,68.0556512 L37.5406629,67.5364393" id="Line" stroke="#000000" stroke-width="0.5" stroke-linecap="square"></path>
                <path d="M39.5057392,76.6912181 L37.5406629,67.5364393" id="Line" stroke="#000000" stroke-width="0.5" stroke-linecap="square"></path>
                <path d="M39.5057392,76.6912181 L41.2524736,67.9723812" id="Line" stroke="#000000" stroke-width="0.5" stroke-linecap="square"></path>
                <path d="M40,75.0000001 L43.6542335,68.1903521" id="Line" stroke="#000000" stroke-width="0.5" stroke-linecap="square"></path>
                <path d="M39.0000001,75 L32.0821177,69.2802067" id="Line" stroke="#000000" stroke-width="0.5" stroke-linecap="square"></path>
                <path d="M27.7152815,79.3068692 L32.0821177,69.2802067" id="Line" stroke="#000000" stroke-width="0.5" stroke-linecap="square"></path>
                <path d="M27.7152815,79.3068692 L23.1301036,72.1138287" id="Line" stroke="#000000" stroke-width="0.5" stroke-linecap="square"></path>
                <path d="M25.5318635,88.0257061 L23.1301036,72.1138287" id="Line" stroke="#000000" stroke-width="0.5" stroke-linecap="square"></path>
                <path d="M25.5318635,88.0257061 L27.7152815,79.3068692" id="Line" stroke="#000000" stroke-width="0.5" stroke-linecap="square"></path>
                <path d="M25.5318635,88.0257061 L18.3265838,80.3967238" id="Line" stroke="#000000" stroke-width="0.5" stroke-linecap="square"></path>
                <path d="M23.1301036,72.1138287 L18.3265838,80.3967238" id="Line" stroke="#000000" stroke-width="0.5" stroke-linecap="square"></path>
                <path d="M14.3964313,92.8210664 L18.3265838,80.3967238" id="Line" stroke="#000000" stroke-width="0.5" stroke-linecap="square"></path>
                <path d="M14.3964313,92.8210664 L20.9466855,83.2303458" id="Line" stroke="#000000" stroke-width="0.5" stroke-linecap="square"></path>
                <path d="M14.3964313,92.8210664 L37.5406629,83.0123749" id="Line" stroke="#000000" stroke-width="0.5" stroke-linecap="square"></path>
                <path d="M27.0602561,82.1404912 L37.5406629,83.0123749" id="Line" stroke="#000000" stroke-width="0.5" stroke-linecap="square"></path>
                <path d="M27.7152815,95.2187465 L37.5406629,83.0123749" id="Line" stroke="#000000" stroke-width="0.5" stroke-linecap="square"></path>
                <path d="M27.7152815,95.2187465 L29.0000001,87" id="Line" stroke="#000000" stroke-width="0.5" stroke-linecap="square"></path>
                <path d="M12.2130132,98.7062813 L29.2436742,86.4999096" id="Line" stroke="#000000" stroke-width="0.5" stroke-linecap="square"></path>
                <path d="M12.2130132,98.7062813 L14.3964313,92.8210664" id="Line" stroke="#000000" stroke-width="0.5" stroke-linecap="square"></path>
                <path d="M12.2130132,98.7062813 L27.7152815,95.2187465" id="Line" stroke="#000000" stroke-width="0.5" stroke-linecap="square"></path>
                <path d="M33.8288522,93.4749792 L27.7152815,95.2187465" id="Line" stroke="#000000" stroke-width="0.5" stroke-linecap="square"></path>
                <path d="M33.8288522,93.4749792 L37.5406629,83.0123749" id="Line" stroke="#000000" stroke-width="0.5" stroke-linecap="square"></path>
                <path d="M33.8288522,93.4749792 L16.7981912,106.553235 L33.8288522,93.4749792 Z" id="Line" stroke="#000000" stroke-width="0.5" stroke-linecap="square"></path>
                <path d="M29.0253324,101.103961 L16.7981912,106.553235" id="Line" stroke="#000000" stroke-width="0.5" stroke-linecap="square"></path>
                <path d="M29.0253324,101.103961 L33.8288522,93.4749792" id="Line" stroke="#000000" stroke-width="0.5" stroke-linecap="square"></path>
                <path d="M29.0253324,101.103961 L23.5667872,105.46338" id="Line" stroke="#000000" stroke-width="0.5" stroke-linecap="square"></path>
                <path d="M16.7981912,106.553235 L23.5667872,105.46338" id="Line" stroke="#000000" stroke-width="0.5" stroke-linecap="square"></path>
                <path d="M16.7981912,106.553235 L12.2130132,98.7062813" id="Line" stroke="#000000" stroke-width="0.5" stroke-linecap="square"></path>
                <path d="M13.523064,108.732944 L12.2130132,98.7062813" id="Line" stroke="#000000" stroke-width="0.5" stroke-linecap="square"></path>
                <path d="M13.523064,108.732944 L16.7981912,106.553235" id="Line" stroke="#000000" stroke-width="0.5" stroke-linecap="square"></path>
                <path d="M13.523064,108.732944 L23.5667872,105.46338" id="Line" stroke="#000000" stroke-width="0.5" stroke-linecap="square"></path>
                <path d="M13.523064,108.732944 L6.9728098,105.681351" id="Line" stroke="#000000" stroke-width="0.5" stroke-linecap="square"></path>
                <path d="M5.44441715,108.732944 L6.9728098,105.681351" id="Line" stroke="#000000" stroke-width="0.5" stroke-linecap="square"></path>
                <path d="M2,109.051593 L2,107" id="Line" stroke="#000000" stroke-width="0.5" stroke-linecap="square"></path>
                <path d="M2.00000003,109 L13.523064,108.433424" id="Line" stroke="#000000" stroke-width="0.5" stroke-linecap="square"></path>
                <path d="M6.9728098,105.681351 L2.00000001,107" id="Line" stroke="#000000" stroke-width="0.5" stroke-linecap="square"></path>
                <path d="M13,105 L6.9728098,105.681351" id="Line" stroke="#000000" stroke-width="0.5" stroke-linecap="square"></path>
                <path d="M12.6496968,100.885991 L6.9728098,105.681351" id="Line" stroke="#000000" stroke-width="0.5" stroke-linecap="square"></path>
                <path d="M12.2130132,98.7062813 L10.0295951,103.0657" id="Line" stroke="#000000" stroke-width="0.5" stroke-linecap="square"></path>
                <path d="M27.0602561,82.1404912 L38.8507137,74.5115089" id="Line" stroke="#000000" stroke-width="0.5" stroke-linecap="square"></path>
                <path d="M27.7152815,79.3068692 L38.8507137,74.5115089" id="Line" stroke="#000000" stroke-width="0.5" stroke-linecap="square"></path>
                <path d="M37.5406629,83.0123749 L38.8507137,74.5115089" id="Line" stroke="#000000" stroke-width="0.5" stroke-linecap="square"></path>
                <path d="M37.5406629,83.0123749 L39.5057392,76.6912181" id="Line" stroke="#000000" stroke-width="0.5" stroke-linecap="square"></path>
            </g>
        </g>
    </g>
</svg>