<?xml version="1.0" encoding="UTF-8" standalone="no"?>
<svg width="34px" height="35px" viewBox="0 0 34 35" version="1.1" xmlns="http://www.w3.org/2000/svg" xmlns:xlink="http://www.w3.org/1999/xlink">
    <!-- Generator: Sketch 3.7.2 (28276) - http://www.bohemiancoding.com/sketch -->
    <title>instagram</title>
    <desc>Created with Sketch.</desc>
    <defs></defs>
    <g id="Page-1" stroke="none" stroke-width="1" fill="none" fill-rule="evenodd">
        <g id="Mobile-Landscape" transform="translate(-133.000000, -207.000000)">
            <g id="Group-4" transform="translate(77.000000, 200.000000)">
                <g id="instagram" transform="translate(49.570618, 0.616973)">
                    <g id="48" transform="translate(0.000000, -0.000000)">
                        <g id="Page-1">
                            <g id="noun_15266" transform="translate(7.076473, 6.950593)">
                                <g id="Group">
                                    <path d="M19.4218548,10.1280073 C18.0780941,10.1280073 16.8734966,10.7289358 16.0474234,11.6753417 L22.7962862,11.6753417 C21.9696562,10.7289358 20.7650589,10.1280073 19.4218548,10.1280073 L19.4218548,10.1280073 L19.4218548,10.1280073 Z" id="Shape"></path>
                                    <path d="M26.7090012,14.6811093 C26.7090012,18.7430029 23.4403339,22.0469839 19.4218548,22.0469839 C15.4033756,22.0469839 12.1341516,18.7430029 12.1341516,14.6811093 C12.1341516,13.6103538 12.3668327,12.5947398 12.7748594,11.6753417 L8.98460806,11.6753417 L8.98460806,25.3200183 L29.8591015,25.3200183 L29.8591015,11.6753417 L26.0677368,11.6753417 C26.4763203,12.5947398 26.7090012,13.6097911 26.7090012,14.6811093 L26.7090012,14.6811093 L26.7090012,14.6811093 Z" id="Shape"></path>
                                    <path d="M14.9174174,15.2437763 C14.9174174,17.7538341 16.9380683,19.7963156 19.4218548,19.7963156 C21.9050845,19.7963156 23.9257355,17.7538341 23.9257355,15.2437763 C23.9257355,14.0914342 23.4965559,13.0409347 22.7962862,12.2380089 L16.0474234,12.2380089 C15.346597,13.0409347 14.9174174,14.0914342 14.9174174,15.2437763 L14.9174174,15.2437763 L14.9174174,15.2437763 Z" id="Shape"></path>
                                    <path d="M31.2223451,0 L2.0548329,0 C0.963236053,0 0.0781575359,0.894640647 0.0781575359,1.99803078 L0.0781575359,31.4806601 C0.0781575359,32.5840503 0.963236053,33.4786909 2.0548329,33.4786909 L31.2223451,33.4786909 C32.3139419,33.4786909 33.1990204,32.5840503 33.1990204,31.4806601 L33.1990204,1.99803078 C33.1990204,0.894640647 32.3139419,0 31.2223451,0 L31.2223451,0 L31.2223451,0 Z M12.4113649,12.8625693 C13.4461831,11.6775924 14.9552699,10.9247439 16.638589,10.9247439 C18.3207948,10.9247439 19.8298816,11.6775924 20.8652564,12.8625693 C21.7430984,13.868618 22.2802687,15.1841337 22.2802687,16.6273747 C22.2802687,19.7715583 19.7491668,22.3300055 16.638589,22.3300055 C13.5274545,22.3300055 10.9963525,19.7715583 10.9963525,16.6273747 C10.9963525,15.1846963 11.5335229,13.868618 12.4113649,12.8625693 L12.4113649,12.8625693 L12.4113649,12.8625693 Z M29.7127017,29.954707 L3.56447627,29.954707 L3.56447627,12.8625693 L8.31272769,12.8625693 C7.80172009,14.0143488 7.51003384,15.2859764 7.51003384,16.6273747 C7.51003384,21.715573 11.6053312,25.8539894 16.638589,25.8539894 C21.6718469,25.8539894 25.7665875,21.715573 25.7665875,16.6273747 C25.7665875,15.2859764 25.4749012,14.0137861 24.9638936,12.8625693 L29.7127017,12.8625693 L29.7127017,29.954707 L29.7127017,29.954707 L29.7127017,29.954707 Z M29.7127017,7.23477323 C29.7127017,8.12266188 29.0001856,8.84231307 28.1212303,8.84231307 L26.0426874,8.84231307 C25.1637321,8.84231307 24.451216,8.12266188 24.451216,7.23477323 L24.451216,5.13208638 C24.451216,4.24419774 25.1637321,3.52454655 26.0426874,3.52454655 L28.1212303,3.52454655 C29.0001856,3.52454655 29.7127017,4.24419774 29.7127017,5.13208638 L29.7127017,7.23477323 L29.7127017,7.23477323 L29.7127017,7.23477323 Z" id="Shape" fill="#4A4A4A"></path>
                                </g>
                            </g>
                            <g id="48"></g>
                        </g>
                    </g>
                </g>
            </g>
        </g>
    </g>
</svg>