<?xml version="1.0" encoding="UTF-8" standalone="no"?>
<svg width="47px" height="33px" viewBox="0 0 47 33" version="1.1" xmlns="http://www.w3.org/2000/svg" xmlns:xlink="http://www.w3.org/1999/xlink">
    <!-- Generator: Sketch 3.7.2 (28276) - http://www.bohemiancoding.com/sketch -->
    <title>noun_415581_cc</title>
    <desc>Created with Sketch.</desc>
    <defs></defs>
    <g id="Page-1" stroke="none" stroke-width="1" fill="none" fill-rule="evenodd">
        <g id="Mobile-Landscape" transform="translate(-188.000000, -207.000000)" fill="#4A4A4A">
            <g id="Group-4" transform="translate(77.000000, 200.000000)">
                <g id="noun_415581_cc" transform="translate(111.531764, 7.007754)">
                    <g id="Group">
                        <g transform="translate(0.000000, 0.338625)" id="Shape">
                            <path d="M0.944501741,0.192285138 C0.407393608,0.243858608 -0.00232621994,0.70447084 -7.84065805e-14,1.25410599 L-7.84065805e-14,30.9850898 C5.75485878e-05,31.5714929 0.466636621,32.046852 1.04220882,32.0469106 L44.8149792,32.0469106 C45.3905514,32.046852 45.8571304,31.5714929 45.857188,30.9850898 L45.857188,1.25410599 C45.8571304,0.667702812 45.3905514,0.192343769 44.8149792,0.192285138 L1.04220882,0.192285138 C1.0096577,0.190729036 0.97705286,0.190729036 0.944501741,0.192285138 L0.944501741,0.192285138 Z M3.76172245,2.31592684 L42.0954655,2.31592684 L22.928594,19.9852894 L3.76172245,2.31592684 L3.76172245,2.31592684 Z M2.08441764,3.6432029 L15.6168478,16.1030069 L2.08441764,28.5794019 L2.08441764,3.6432029 L2.08441764,3.6432029 Z M43.7727703,3.6432029 L43.7727703,28.5794019 L30.2403402,16.1030069 L43.7727703,3.6432029 L43.7727703,3.6432029 Z M17.1638765,17.5464196 L22.2283599,22.2084768 C22.6256511,22.5755843 23.2315368,22.5755843 23.628828,22.2084768 L28.6933115,17.5464196 L42.11175,29.9232689 L3.74543794,29.9232689 L17.1638765,17.5464196 L17.1638765,17.5464196 Z"></path>
                        </g>
                    </g>
                </g>
            </g>
        </g>
    </g>
</svg>