<?xml version="1.0" encoding="UTF-8" standalone="no"?>
<svg width="610px" height="33px" viewBox="0 0 610 33" version="1.1" xmlns="http://www.w3.org/2000/svg" xmlns:xlink="http://www.w3.org/1999/xlink">
    <!-- Generator: Sketch 3.7.2 (28276) - http://www.bohemiancoding.com/sketch -->
    <title>Group 6</title>
    <desc>Created with Sketch.</desc>
    <defs></defs>
    <g id="Page-1" stroke="none" stroke-width="1" fill="none" fill-rule="evenodd">
        <g id="Desktop" transform="translate(0.000000, -255.000000)">
            <g id="Group-6" transform="translate(-140.000000, 255.000000)">
                <g id="Group-2" transform="translate(122.000000, 4.000000)" fill="#F6E3ED">
                    <ellipse id="Oval-1" cx="394.752937" cy="14.3682818" rx="14.3308122" ry="14.3373949"></ellipse>
                    <ellipse id="Oval-1" cx="420.166704" cy="14.3682818" rx="14.3308122" ry="14.3373949"></ellipse>
                    <ellipse id="Oval-1" cx="446.678596" cy="14.3682818" rx="14.3308122" ry="14.3373949"></ellipse>
                    <ellipse id="Oval-1" cx="472.092363" cy="14.3682818" rx="14.3308122" ry="14.3373949"></ellipse>
                    <ellipse id="Oval-1" cx="496.878629" cy="14.3682818" rx="14.3308122" ry="14.3373949"></ellipse>
                    <ellipse id="Oval-1" cx="522.370833" cy="14.3682818" rx="14.3308122" ry="14.3373949"></ellipse>
                    <ellipse id="Oval-1" cx="548.255226" cy="14.3682818" rx="14.3308122" ry="14.3373949"></ellipse>
                    <ellipse id="Oval-1" cx="573.74743" cy="14.3682818" rx="14.3308122" ry="14.3373949"></ellipse>
                    <ellipse id="Oval-1" cx="599.867134" cy="14.3682818" rx="14.3308122" ry="14.3373949"></ellipse>
                    <ellipse id="Oval-1" cx="625.280901" cy="14.3682818" rx="14.3308122" ry="14.3373949"></ellipse>
                    <ellipse id="Oval-1" cx="140.223082" cy="14.3373949" rx="14.3308122" ry="14.3373949"></ellipse>
                    <ellipse id="Oval-1" cx="165.636849" cy="14.3373949" rx="14.3308122" ry="14.3373949"></ellipse>
                    <ellipse id="Oval-1" cx="192.148742" cy="14.3373949" rx="14.3308122" ry="14.3373949"></ellipse>
                    <ellipse id="Oval-1" cx="217.562508" cy="14.3373949" rx="14.3308122" ry="14.3373949"></ellipse>
                    <ellipse id="Oval-1" cx="242.348775" cy="14.3373949" rx="14.3308122" ry="14.3373949"></ellipse>
                    <ellipse id="Oval-1" cx="267.840979" cy="14.3373949" rx="14.3308122" ry="14.3373949"></ellipse>
                    <ellipse id="Oval-1" cx="293.725371" cy="14.3373949" rx="14.3308122" ry="14.3373949"></ellipse>
                    <ellipse id="Oval-1" cx="319.217575" cy="14.3373949" rx="14.3308122" ry="14.3373949"></ellipse>
                    <ellipse id="Oval-1" cx="345.33728" cy="14.3373949" rx="14.3308122" ry="14.3373949"></ellipse>
                    <ellipse id="Oval-1" cx="370.751046" cy="14.3373949" rx="14.3308122" ry="14.3373949"></ellipse>
                    <ellipse id="Oval-1" cx="14.3308122" cy="14.3373949" rx="14.3308122" ry="14.3373949"></ellipse>
                    <ellipse id="Oval-1" cx="40.2152042" cy="14.3373949" rx="14.3308122" ry="14.3373949"></ellipse>
                    <ellipse id="Oval-1" cx="65.7074085" cy="14.3373949" rx="14.3308122" ry="14.3373949"></ellipse>
                    <ellipse id="Oval-1" cx="91.8271131" cy="14.3373949" rx="14.3308122" ry="14.3373949"></ellipse>
                    <ellipse id="Oval-1" cx="117.24088" cy="14.3373949" rx="14.3308122" ry="14.3373949"></ellipse>
                </g>
                <rect id="Rectangle-55" fill="#FFFFFF" x="259" y="0" width="250.921727" height="13.8826219"></rect>
                <rect id="Rectangle-55" fill="#FFFFFF" x="503" y="3" width="259.236108" height="10.8237391"></rect>
                <rect id="Rectangle-55" fill="#FFFFFF" x="0" y="0" width="262.452047" height="13.8826219"></rect>
            </g>
        </g>
    </g>
</svg>