<?xml version="1.0" encoding="UTF-8" standalone="no"?>
<svg width="42px" height="35px" viewBox="0 0 42 35" version="1.1" xmlns="http://www.w3.org/2000/svg" xmlns:xlink="http://www.w3.org/1999/xlink">
    <!-- Generator: Sketch 3.7.2 (28276) - http://www.bohemiancoding.com/sketch -->
    <title>Shape</title>
    <desc>Created with Sketch.</desc>
    <defs></defs>
    <g id="Page-1" stroke="none" stroke-width="1" fill="none" fill-rule="evenodd">
        <g id="Mobile-Landscape" transform="translate(-77.000000, -207.000000)" fill="#4A4A4A">
            <g id="Group-4" transform="translate(77.000000, 200.000000)">
                <path d="M41.9099491,11.2086838 C41.7270128,10.9757646 41.4363125,10.858778 41.144035,10.9009353 C40.970561,10.9257027 40.751353,10.968914 40.4674864,11.0310961 C40.2035956,11.0885354 39.8813545,11.1649456 39.5217902,11.2545299 C39.6595181,10.9383499 39.7756931,10.6095227 39.8792518,10.2664674 C40.0479947,9.702613 40.1883509,9.10292488 40.333964,8.46687607 C40.407559,8.14806121 40.2877042,7.81607219 40.0269676,7.61793271 C39.7657052,7.42032019 39.4145517,7.39555276 39.1275311,7.55364277 C37.8385666,8.26662872 36.8749974,8.71876616 36.0417964,9.01439448 C35.3389639,9.26312276 34.723394,9.40487681 34.045794,9.50131172 C33.2509676,8.75038416 32.3594163,8.17282865 31.4032066,7.77760362 C30.323988,7.32915495 29.1674946,7.11046377 27.9862943,7.11046377 C26.5732696,7.11099074 25.1244988,7.42190109 23.7088457,8.02000831 L23.7088457,8.02000831 C23.0207322,8.31089393 22.380981,8.74247966 21.8022087,9.26944637 C20.9348386,10.0614773 20.2036194,11.0706186 19.680569,12.1956925 C19.1575185,13.3207664 18.8421112,14.5628269 18.8415856,15.8217504 C18.8415856,15.954019 18.8463167,16.0868146 18.8526248,16.2185563 C18.8305463,16.2127597 18.8100448,16.20749 18.788492,16.2016934 C17.2855763,15.8022526 14.9710124,15.0118026 12.673796,13.9847445 C11.7317796,13.5652789 10.4291475,12.7274019 9.15858177,11.6481741 C7.88433632,10.5705272 6.63059234,9.24731376 5.72432206,7.87140369 C5.58764557,7.66325184 5.36528343,7.52887534 5.11821438,7.50358093 C4.87114534,7.47828653 4.62565333,7.565763 4.45007661,7.74176988 C4.0558175,8.13488705 3.72253713,8.49954801 3.43656785,8.86262806 C3.00866529,9.40645771 2.69115529,9.95661095 2.47667833,10.5557721 C2.26115002,11.1549332 2.14865475,11.7872933 2.0803165,12.5113455 C2.03353109,12.9998437 2.00251604,13.5252295 2.00251604,14.0674782 C2.00461875,15.2642196 2.15128314,16.5473835 2.66329431,17.710926 C2.27324063,17.7578261 1.96309013,18.074533 1.93575483,18.4739738 C1.914202,18.7864651 1.90368842,19.0921058 1.90368842,19.3919499 C1.90211138,22.0916002 2.76107057,24.2890514 4.10891106,25.81462 C4.24033076,25.9642786 4.37753293,26.1039247 4.51788918,26.2409361 C4.5173635,26.2472597 4.51631214,26.2525294 4.51631214,26.2599069 C4.5147351,26.3141845 4.51420942,26.3674082 4.51420942,26.4211587 C4.51368375,27.4513786 4.77967723,28.4183626 5.23018397,29.2736294 C5.90620693,30.5589013 6.98016875,31.6007145 8.21814237,32.3616544 C8.67495726,32.6414737 9.15490202,32.8828244 9.6490401,33.0851796 C7.56682631,33.7512656 5.8499593,33.9040859 4.4353576,33.9056668 C3.80717142,33.9056668 3.23733558,33.8740488 2.71638787,33.8434847 C2.19544016,33.8113398 1.72390627,33.777087 1.28075902,33.777087 C1.17509758,33.777087 1.07153885,33.7797217 0.969031485,33.7839375 C0.720385405,33.7955308 0.492766477,33.9162062 0.344525051,34.1153995 C0.195757946,34.31512 0.144241422,34.567537 0.202591771,34.8099417 C0.447558099,35.8095975 1.03999813,36.7186151 1.85795436,37.5217123 C3.09014551,38.7253043 4.84696411,39.7170556 6.95756456,40.4263529 C9.06763933,41.1324883 11.5341243,41.5503728 14.1819685,41.5503728 C18.0420281,41.5503728 22.2916156,40.6603261 26.3440736,38.4507547 C30.0469552,36.4272025 33.1274331,33.1136359 34.9799252,29.4195993 C35.6191507,28.142232 36.3177778,26.4917722 36.8629068,24.7375001 C37.4069843,22.9827009 37.8022948,21.1314669 37.8033462,19.42146 C37.8033462,18.8412696 37.7555094,18.2768883 37.6487966,17.7367474 C38.1177021,17.3989617 38.5361424,17.0701345 38.9146312,16.7370915 C39.6647748,16.0773292 40.2566892,15.3954343 40.7487246,14.6297517 C41.2418113,13.8630151 41.6360704,13.0214493 42.0287525,12.0275901 C42.139145,11.7525135 42.0939367,11.4416031 41.9099491,11.2086838 L41.9099491,11.2086838 L41.9099491,11.2086838 Z M36.2436571,16.6975691 C35.9466486,16.9015052 35.8141775,17.2751246 35.9182619,17.6213417 C36.0728115,18.1361881 36.1485092,18.7479965 36.1485092,19.4219869 C36.150612,20.8716723 35.7963044,22.5948535 35.2832419,24.2447863 C34.7701794,25.8957729 34.0999389,27.478254 33.500665,28.6755223 C31.8069279,32.0660261 28.926208,35.1572128 25.5545041,36.9931648 C21.7669882,39.0578203 17.7907536,39.8904277 14.1824942,39.8904277 C10.8843853,39.8920086 7.89642693,39.1900889 5.68594751,38.1277241 C4.58044495,37.5975956 3.6710206,36.9789367 3.01497344,36.3344564 C2.72479873,36.0509483 2.48876894,35.7642784 2.29899889,35.4786625 C2.40150626,35.4860399 2.50559067,35.4918366 2.61493186,35.4986872 C3.14429043,35.5313591 3.7530265,35.5645581 4.43483192,35.5645581 C6.51967411,35.5666659 9.28737308,35.2441623 12.6948232,33.6769633 C13.035463,33.5199272 13.2283872,33.1563202 13.1658314,32.7858626 C13.104327,32.415932 12.80469,32.1340047 12.4314581,32.0971171 C11.678686,32.0217609 10.8970016,31.8172978 10.1552688,31.5005907 C9.04293243,31.0273747 8.02574392,30.3006875 7.30871801,29.423815 C6.94967938,28.9859057 6.66476146,28.5111087 6.4702603,28.0089094 C6.43346278,27.9161633 6.40455045,27.8218362 6.37458676,27.7280361 C6.58328125,27.81077 6.79250141,27.8871801 7.00277294,27.9472543 C7.67669318,28.142232 8.29436579,28.2165343 9.06290822,28.2223309 C9.06921637,28.2239118 9.01927688,28.3762052 9.01927688,28.3762052 L9.15385066,28.3762052 C9.60856283,28.3762052 9.98179479,27.9367149 9.98757726,27.4808887 C9.99388541,27.0261165 9.63064134,26.6113937 9.17592917,26.6024353 C7.79391956,26.5766139 6.40665316,25.9316067 5.34898738,24.7343383 C4.43010081,23.6914711 3.75670625,22.2027902 3.59637421,20.2846314 C3.85448251,20.3299506 4.12468142,20.3505023 4.43378056,20.3789585 C4.84013029,20.4147922 5.31218987,20.4485181 5.88044867,20.512281 C6.30519715,20.559708 6.69577651,20.2746191 6.7830392,19.8556805 C6.87030188,19.436742 6.62533555,19.0188574 6.21740879,18.8923854 C5.69330701,18.7284987 5.29589382,18.4897829 4.97207567,18.1899388 C4.72973774,17.9654509 4.52787707,17.7035485 4.35860849,17.4063393 C4.10470563,16.9615794 3.92650051,16.4346127 3.8150566,15.8623268 C3.70256133,15.2905679 3.65735295,14.6761248 3.65735295,14.0674782 C3.65735295,13.5895194 3.68468825,13.1152494 3.72779391,12.6689086 C3.76879686,12.2383768 3.82399314,11.8779316 3.90074224,11.5628055 C4.0184943,11.0895894 4.17514659,10.7175509 4.43640896,10.3091517 C4.57255977,10.0967841 4.74130267,9.87387718 4.94789445,9.63252642 C5.87203781,10.8514004 6.97228357,11.9685698 8.08987673,12.915529 C9.46505252,14.0780176 10.8496905,14.9833464 11.9998758,15.5003007 C13.5905799,16.2106518 15.1744501,16.8077051 16.5291245,17.252992 C17.2061988,17.4764258 17.8259741,17.6613911 18.3632178,17.8047261 C18.901513,17.948061 19.3535967,18.0487117 19.7189435,18.1040432 C19.9928222,18.1451465 20.2672265,18.0476578 20.4533168,17.8426677 C20.6399328,17.6371507 20.7114251,17.3541696 20.6451896,17.0848896 C20.5453106,16.6754364 20.4964225,16.2517552 20.4964225,15.8206965 C20.4937941,14.5180347 20.9453522,13.1426517 21.6692119,11.9991339 C22.0298276,11.427902 22.4561531,10.9146364 22.9150707,10.4956979 C23.3739883,10.0767594 23.8660237,9.75214787 24.3512252,9.54768479 C25.5839421,9.02704168 26.8150819,8.76882799 27.9852429,8.76882799 C28.9645825,8.76882799 29.8997652,8.94852364 30.7697636,9.30896887 C31.6387107,9.6694141 32.4424736,10.2106089 33.1568711,10.9509971 C33.2157471,11.0031668 33.2378256,11.0226646 33.2620069,11.0405815 C33.3513723,11.0974939 33.3745021,11.110668 33.3986834,11.1227883 C33.4985623,11.1617838 33.5237949,11.1702153 33.5500789,11.1770658 C33.6546889,11.1955097 33.6799215,11.1991984 33.7072568,11.2002524 C33.8118669,11.1986715 33.8281629,11.2007793 33.8449847,11.1986715 C34.7696537,11.0938051 35.6359724,10.9167443 36.5937592,10.5763238 C37.1147069,10.3913585 37.6629899,10.1584392 38.2675206,9.86755358 C38.1608078,10.2148246 38.0467355,10.5241541 37.9179441,10.7850026 C37.7591891,11.1085602 37.5846638,11.3615042 37.3770206,11.5659673 C37.1688518,11.7699034 36.9265139,11.9332631 36.5911308,12.0660587 C36.1768959,12.2288914 35.9660987,12.6878794 36.1106604,13.1089258 C36.2557477,13.5299722 36.7046774,13.7607836 37.1299516,13.6332577 C38.1508199,13.326563 39.0896822,13.0715111 39.8371975,12.8828571 C39.8077595,12.9392425 39.7793728,12.9987897 39.7509862,13.0535943 C39.3714461,13.770269 38.964045,14.3488784 38.4189161,14.9195834 C37.8748385,15.4897614 37.1830452,16.0536157 36.2436571,16.6975691 Z" id="Shape"></path>
            </g>
        </g>
    </g>
</svg>